<svg width="400" height="400" viewBox="0 0 400 400" fill="none" xmlns="http://www.w3.org/2000/svg">
<path d="M340.896 58.49C303.18 20.773 253.031 0.000976562 199.693 0.000976562C146.353 0.000976562 96.206 20.772 58.489 58.49C20.772 96.208 0 146.355 0 199.694C0 253.034 20.772 303.183 58.49 340.9C96.207 378.617 146.354 399.388 199.694 399.388C253.033 399.388 303.18 378.617 340.899 340.9C378.616 303.183 399.389 253.035 399.389 199.694C399.387 146.355 378.613 96.208 340.896 58.49ZM321.93 199.694C321.93 267.095 267.094 321.93 199.693 321.93C132.292 321.93 77.457 267.096 77.457 199.694C77.457 132.292 132.292 77.458 199.693 77.458C267.094 77.458 321.93 132.293 321.93 199.694ZM328.061 71.327C331.413 74.68 334.614 78.144 337.668 81.706L308.406 110.968C282.64 79.456 243.478 59.304 199.693 59.304C195.1 59.304 190.559 59.533 186.078 59.966V18.655C190.586 18.323 195.127 18.155 199.693 18.155C248.184 18.155 293.771 37.038 328.061 71.327Z" fill="#D3B47F"/>
</svg>
